# xmcd
#
# Track frame offsets:
#	150
#	12719
#	25163
#	38016
#	51402
#	65358
#	77049
#	89124
#	100901
#	114531
#	127005
#	139542
#
# Disc length: 2024 seconds
# Revision: 0
# Processed by: cddbd v1.5.2PL0 Copyright (c) Steve Scherf et al.
# Submitted via: dBpowerAMP V12.0
#
DISCID=a507e60c
DTITLE=Hank Williams - Original American Classics, Vol. 2
DYEAR=1993
DGENRE=Country
TTITLE0=I'm So Lonesome I Could Cry
TTITLE1=Cold, Cold Heart
TTITLE2=Lovesick Blues
TTITLE3=Wedding Bells
TTITLE4=Ramblin' Man
TTITLE5=My Son Calls Another Man Daddy
TTITLE6=Why Should We Try Anymore
TTITLE7=Settin' the Woods on Fire
TTITLE8=A Mansion on the Hill
TTITLE9=(Last Night) I Heard You Cry in Your Sleep
TTITLE10=I Won't Be Home No More
TTITLE11=I Saw the Light
EXTD=
EXTT0=
EXTT1=
EXTT2=
EXTT3=
EXTT4=
EXTT5=
EXTT6=
EXTT7=
EXTT8=
EXTT9=
EXTT10=
EXTT11=
PLAYORDER=
